
<svg width="16" height="16" viewBox="0 0 16 16" fill="none" xmlns="http://www.w3.org/2000/svg">
<path fill-rule="evenodd" clip-rule="evenodd" d="M8.00024 3C7.44796 3 7.00024 3.44772 7.00024 4C7.00024 4.55228 7.44796 5 8.00024 5C8.55253 5 9.00024 4.55228 9.00024 4C9.00024 3.44772 8.55253 3 8.00024 3ZM6.00024 4C6.00024 2.89543 6.89567 2 8.00024 2C9.10481 2 10.0002 2.89543 10.0002 4C10.0002 4.93192 9.36286 5.71497 8.50024 5.93699V12.9753C10.7643 12.7505 12.5841 11.0154 12.9379 8.79178L11.034 9.62474C10.781 9.73543 10.4862 9.62007 10.3755 9.36708C10.2648 9.11409 10.3802 8.81927 10.6332 8.70859L13.2998 7.54192C13.4544 7.47429 13.6327 7.48919 13.7739 7.58155C13.9151 7.67391 14.0002 7.83126 14.0002 8C14.0002 11.3137 11.314 14 8.00024 14C4.68654 14 2.00024 11.3137 2.00024 8C2.00024 7.83126 2.08535 7.67391 2.22657 7.58155C2.36779 7.48919 2.54606 7.47429 2.70065 7.54192L5.36732 8.70859C5.62031 8.81927 5.73567 9.11409 5.62499 9.36708C5.51431 9.62007 5.21949 9.73543 4.9665 9.62474L3.06259 8.79178C3.41637 11.0154 5.23616 12.7505 7.50024 12.9753V5.93699C6.63763 5.71497 6.00024 4.93192 6.00024 4Z" fill="#767676"/>
</svg>
