<svg width="20" height="21" viewBox="0 0 20 21" fill="none" xmlns="http://www.w3.org/2000/svg">
<g id="icon / heroicons / Solid / camera">
<path id="Icon" fill-rule="evenodd" clip-rule="evenodd" d="M4 5.04346C2.89543 5.04346 2 5.93889 2 7.04346V15.0435C2 16.148 2.89543 17.0435 4 17.0435H16C17.1046 17.0435 18 16.148 18 15.0435V7.04346C18 5.93889 17.1046 5.04346 16 5.04346H14.4142C14.149 5.04346 13.8946 4.9381 13.7071 4.75056L12.5858 3.62924C12.2107 3.25417 11.702 3.04346 11.1716 3.04346H8.82843C8.29799 3.04346 7.78929 3.25417 7.41421 3.62924L6.29289 4.75056C6.10536 4.9381 5.851 5.04346 5.58579 5.04346H4ZM10 14.0435C11.6569 14.0435 13 12.7003 13 11.0435C13 9.3866 11.6569 8.04346 10 8.04346C8.34315 8.04346 7 9.3866 7 11.0435C7 12.7003 8.34315 14.0435 10 14.0435Z" fill="#0F172A"/>
</g>
</svg>
