<svg width="22" height="20" viewBox="0 0 22 20" fill="none" xmlns="http://www.w3.org/2000/svg">
<path d="M9.33366 18.5C10.2541 18.5 11.0003 17.7538 11.0003 16.8334C11.0003 15.9129 10.2541 15.1667 9.33366 15.1667C8.41318 15.1667 7.66699 15.9129 7.66699 16.8334C7.66699 17.7538 8.41318 18.5 9.33366 18.5Z" stroke="black" stroke-width="1.5" stroke-linecap="round" stroke-linejoin="round"/>
<path d="M17.6667 18.5C18.5871 18.5 19.3333 17.7538 19.3333 16.8334C19.3333 15.9129 18.5871 15.1667 17.6667 15.1667C16.7462 15.1667 16 15.9129 16 16.8334C16 17.7538 16.7462 18.5 17.6667 18.5Z" stroke="black" stroke-width="1.5" stroke-linecap="round" stroke-linejoin="round"/>
<path d="M1 1H4.63636L7.07273 12.1581C7.15586 12.5417 7.38355 12.8863 7.71595 13.1316C8.04835 13.3769 8.46427 13.5072 8.89091 13.4997H17.7273C18.1539 13.5072 18.5698 13.3769 18.9022 13.1316C19.2346 12.8863 19.4623 12.5417 19.5455 12.1581L21 5.16656H5.54545" stroke="black" stroke-width="1.5" stroke-linecap="round" stroke-linejoin="round"/>
</svg>
