
<svg width="24" height="24" viewBox="0 0 24 24" fill="none" xmlns="http://www.w3.org/2000/svg">
<path fill-rule="evenodd" clip-rule="evenodd" d="M8.98611 2.875C8.98611 1.28718 10.2733 0 11.8611 0H13.1389C14.7267 0 16.0139 1.28718 16.0139 2.875V3.01667L16.1141 2.91646C17.2369 1.7937 19.0572 1.7937 20.18 2.91646L21.0835 3.81998C22.2062 4.94274 22.2062 6.76309 21.0835 7.88584L20.9832 7.98611H21.125C22.7128 7.98611 24 9.27329 24 10.8611V12.1389C24 13.7267 22.7128 15.0139 21.125 15.0139H20.9833L21.0835 15.1141C22.2063 16.2369 22.2063 18.0572 21.0835 19.18L20.18 20.0835C19.0572 21.2063 17.2369 21.2063 16.1141 20.0835L16.0139 19.9833V20.125C16.0139 21.7128 14.7267 23 13.1389 23H11.8611C10.2733 23 8.98611 21.7128 8.98611 20.125V19.9832L8.8859 20.0834C7.76314 21.2062 5.94279 21.2062 4.82003 20.0834L3.91651 19.1799C2.79375 18.0572 2.79375 16.2368 3.91651 15.114L4.01667 15.0139H3.875C2.28718 15.0139 1 13.7267 1 12.1389L1 10.8611C1 9.27329 2.28718 7.98611 3.875 7.98611H4.01671L3.91652 7.88592C2.79376 6.76316 2.79376 4.94281 3.91652 3.82006L4.82004 2.91653C5.9428 1.79377 7.76315 1.79377 8.8859 2.91653L8.98611 3.01674V2.875ZM11.8611 1.91667C11.3318 1.91667 10.9028 2.34573 10.9028 2.875V3.78794C10.9028 5.21091 9.18235 5.92355 8.17615 4.91735L7.53062 4.27182C7.15636 3.89757 6.54958 3.89757 6.17533 4.27182L5.2718 5.17534C4.89755 5.5496 4.89755 6.15638 5.2718 6.53063L5.91732 7.17615C6.92351 8.18234 6.21089 9.90278 4.78791 9.90278L3.875 9.90278C3.34573 9.90278 2.91667 10.3318 2.91667 10.8611V12.1389C2.91667 12.6682 3.34573 13.0972 3.875 13.0972H4.78788C6.21085 13.0972 6.92348 14.8177 5.91728 15.8238L5.2718 16.4693C4.89754 16.8436 4.89754 17.4504 5.2718 17.8246L6.17532 18.7282C6.54957 19.1024 7.15636 19.1024 7.53061 18.7281L8.17615 18.0826C9.18234 17.0764 10.9028 17.789 10.9028 19.212V20.125C10.9028 20.6543 11.3318 21.0833 11.8611 21.0833H13.1389C13.6682 21.0833 14.0972 20.6543 14.0972 20.125V19.2121C14.0972 17.7891 15.8177 17.0765 16.8239 18.0827L17.4694 18.7282C17.8436 19.1025 18.4504 19.1025 18.8247 18.7282L19.7282 17.8247C20.1025 17.4504 20.1025 16.8437 19.7282 16.4694L19.0826 15.8239C18.0765 14.8177 18.7891 13.0972 20.2121 13.0972H21.125C21.6543 13.0972 22.0833 12.6682 22.0833 12.1389V10.8611C22.0833 10.3318 21.6543 9.90278 21.125 9.90278H20.212C18.789 9.90278 18.0764 8.18234 19.0826 7.17615L19.7282 6.53056C20.1025 6.1563 20.1025 5.54952 19.7282 5.17527L18.8247 4.27174C18.4504 3.89749 17.8436 3.89749 17.4694 4.27174L16.8239 4.91728C15.8177 5.92347 14.0972 5.21085 14.0972 3.78787V2.875C14.0972 2.34573 13.6682 1.91667 13.1389 1.91667H11.8611ZM12.5 8.94444C11.0886 8.94444 9.94444 10.0886 9.94444 11.5C9.94444 12.9114 11.0886 14.0556 12.5 14.0556C13.9114 14.0556 15.0556 12.9114 15.0556 11.5C15.0556 10.0886 13.9114 8.94444 12.5 8.94444ZM8.02778 11.5C8.02778 9.03006 10.0301 7.02778 12.5 7.02778C14.9699 7.02778 16.9722 9.03006 16.9722 11.5C16.9722 13.9699 14.9699 15.9722 12.5 15.9722C10.0301 15.9722 8.02778 13.9699 8.02778 11.5Z" fill="black"/>
</svg>
