<svg xmlns="http://www.w3.org/2000/svg" width="16" height="16" viewBox="0 0 16 16" fill="none">
  <path fill-rule="evenodd" clip-rule="evenodd" d="M8 3C7.44772 3 7 3.44772 7 4C7 4.55228 7.44772 5 8 5C8.55229 5 9 4.55228 9 4C9 3.44772 8.55229 3 8 3ZM6 4C6 2.89543 6.89543 2 8 2C9.10457 2 10 2.89543 10 4C10 4.93192 9.36261 5.71497 8.5 5.93699V12.9753C10.7641 12.7505 12.5839 11.0154 12.9377 8.79178L11.0337 9.62474C10.7808 9.73543 10.4859 9.62007 10.3753 9.36708C10.2646 9.11409 10.3799 8.81927 10.6329 8.70859L13.2996 7.54192C13.4542 7.47429 13.6325 7.48919 13.7737 7.58155C13.9149 7.67391 14 7.83126 14 8C14 11.3137 11.3137 14 8 14C4.68629 14 2 11.3137 2 8C2 7.83126 2.08511 7.67391 2.22633 7.58155C2.36754 7.48919 2.54582 7.47429 2.70041 7.54192L5.36708 8.70859C5.62007 8.81927 5.73543 9.11409 5.62475 9.36708C5.51406 9.62007 5.21925 9.73543 4.96626 9.62474L3.06234 8.79178C3.41612 11.0154 5.23591 12.7505 7.5 12.9753V5.93699C6.63739 5.71497 6 4.93192 6 4Z" fill="#767676"/>
</svg>