<svg xmlns="http://www.w3.org/2000/svg" width="16" height="16" viewBox="0 0 16 16" fill="none">
  <g clip-path="url(#clip0_1899_1698)">
    <path fill-rule="evenodd" clip-rule="evenodd" d="M7.63255 12.9356L4.77598 14.505C4.39013 14.717 3.91289 14.5619 3.71003 14.1587C3.62926 13.9982 3.60138 13.8142 3.63073 13.6355L4.17628 10.3115C4.2202 10.0439 4.13531 9.77085 3.94928 9.58136L1.63827 7.22728C1.32611 6.9093 1.31972 6.38708 1.624 6.06087C1.74517 5.93097 1.90393 5.84644 2.07572 5.82035L5.26945 5.33539C5.52654 5.29635 5.74879 5.12761 5.86376 4.88416L7.29204 1.85988C7.48497 1.45138 7.95826 1.28365 8.34918 1.48526C8.50484 1.56555 8.63084 1.69721 8.70766 1.85988L10.1359 4.88416C10.2509 5.12761 10.4732 5.29635 10.7302 5.33539L13.924 5.82035C14.3554 5.88586 14.6543 6.30442 14.5916 6.75523C14.5666 6.93475 14.4857 7.10066 14.3614 7.22728L12.0504 9.58136C11.8644 9.77085 11.7795 10.0439 11.8234 10.3115L12.3999 13.6355C12.4736 14.0844 12.1541 14.5109 11.7245 14.5879C11.5534 14.6185 11.3774 14.5894 11.2237 14.505L8.36715 12.9356C8.13721 12.8093 7.8625 12.8093 7.63255 12.9356Z" stroke="#767676" stroke-linejoin="round"/>
  </g>
  <defs>
    <clipPath id="clip0_1899_1698">
      <rect width="16" height="16" fill="white"/>
    </clipPath>
  </defs>
</svg>