<svg xmlns="http://www.w3.org/2000/svg" width="16" height="16" viewBox="0 0 16 16" fill="none">
  <path fill-rule="evenodd" clip-rule="evenodd" d="M8 3.00024C7.44772 3.00024 7 3.44796 7 4.00024C7 4.55253 7.44772 5.00024 8 5.00024C8.55229 5.00024 9 4.55253 9 4.00024C9 3.44796 8.55229 3.00024 8 3.00024ZM6 4.00024C6 2.89567 6.89543 2.00024 8 2.00024C9.10457 2.00024 10 2.89567 10 4.00024C10 4.93216 9.36261 5.71521 8.5 5.93724V12.9756C10.7641 12.7508 12.5839 11.0157 12.9377 8.79203L11.0337 9.62499C10.7808 9.73567 10.4859 9.62031 10.3753 9.36732C10.2646 9.11433 10.3799 8.81952 10.6329 8.70883L13.2996 7.54217C13.4542 7.47453 13.6325 7.48943 13.7737 7.58179C13.9149 7.67415 14 7.83151 14 8.00024C14 11.314 11.3137 14.0002 8 14.0002C4.68629 14.0002 2 11.314 2 8.00024C2 7.83151 2.08511 7.67415 2.22633 7.58179C2.36754 7.48943 2.54582 7.47453 2.70041 7.54217L5.36708 8.70883C5.62007 8.81952 5.73543 9.11433 5.62475 9.36732C5.51406 9.62031 5.21925 9.73567 4.96626 9.62499L3.06234 8.79203C3.41612 11.0157 5.23591 12.7508 7.5 12.9756V5.93724C6.63739 5.71521 6 4.93216 6 4.00024Z" fill="#767676"/>
</svg>