<svg xmlns="http://www.w3.org/2000/svg" width="26" height="24" viewBox="0 0 26 24" fill="none">
  <path d="M11 22C12.1046 22 13 21.1046 13 20C13 18.8954 12.1046 18 11 18C9.89543 18 9 18.8954 9 20C9 21.1046 9.89543 22 11 22Z" stroke="#797979" stroke-width="2" stroke-linecap="round" stroke-linejoin="round"/>
  <path d="M21 22C22.1046 22 23 21.1046 23 20C23 18.8954 22.1046 18 21 18C19.8954 18 19 18.8954 19 20C19 21.1046 19.8954 22 21 22Z" stroke="#797979" stroke-width="2" stroke-linecap="round" stroke-linejoin="round"/>
  <path d="M1 1H5.36364L8.28727 14.3897C8.38703 14.8501 8.66026 15.2636 9.05914 15.5579C9.45802 15.8523 9.95712 16.0086 10.4691 15.9996H21.0727C21.5847 16.0086 22.0838 15.8523 22.4827 15.5579C22.8816 15.2636 23.1548 14.8501 23.2545 14.3897L25 5.99988H6.45455" stroke="#797979" stroke-width="2" stroke-linecap="round" stroke-linejoin="round"/>
</svg>