<svg xmlns="http://www.w3.org/2000/svg" width="49" height="24" viewBox="0 0 49 24" fill="none">
  <path d="M38.4372 0V1.20859H30.5166V9.09268C30.5166 9.49924 30.8482 9.82825 31.258 9.82825H35.6287C37.6153 9.82825 39.6555 9.48705 40.6348 8.85562V3.77089C40.6348 1.68826 42.3366 0 44.436 0H46.4884V4.65158H48.5543V6.09724H46.4884V11.511H40.6337V10.0653C39.6007 10.6956 37.5081 11.0379 35.4422 11.0379H27.6009C25.9918 11.0379 24.6875 9.74406 24.6875 8.14774V0H38.4372Z" fill="#E8E8E8"/>
  <path d="M38.4372 0V1.20859H30.5166V9.09268C30.5166 9.49924 30.8482 9.82825 31.258 9.82825H35.6287C37.6153 9.82825 39.6555 9.48705 40.6348 8.85562V3.77089C40.6348 1.68826 42.3366 0 44.436 0H46.4884V4.65158H48.5543V6.09724H46.4884V11.511H40.6337V10.0653C39.6007 10.6956 37.5081 11.0379 35.4422 11.0379H27.6009C25.9918 11.0379 24.6875 9.74406 24.6875 8.14774V0H38.4372Z" fill="#797979"/>
  <path d="M38.4372 0V1.20859H30.5166V9.09268C30.5166 9.49924 30.8482 9.82825 31.258 9.82825H35.6287C37.6153 9.82825 39.6555 9.48705 40.6348 8.85562V3.77089C40.6348 1.68826 42.3366 0 44.436 0H46.4884V4.65158H48.5543V6.09724H46.4884V11.511H40.6337V10.0653C39.6007 10.6956 37.5081 11.0379 35.4422 11.0379H27.6009C25.9918 11.0379 24.6875 9.74406 24.6875 8.14774V0H38.4372Z" fill="#2CBDE4"/>
  <path d="M0 20.6025C2.43659 20.6025 5.08647 18.1588 5.08647 13.9536V0H10.5694V13.9536C10.5694 18.7359 5.69506 21.5741 0 21.5741V20.6025ZM13.4046 16.1614C15.0204 16.1614 16.1327 17.2659 16.1327 18.8689C16.1327 20.4098 14.9579 21.5752 13.4046 21.5752C11.7888 21.5752 10.6766 20.4718 10.6766 18.8689C10.6754 17.3268 11.8513 16.1614 13.4046 16.1614ZM17.0863 10.196H12.3449V8.75038H17.0863V4.15086C17.0863 1.85886 18.959 0.0011076 21.2694 0.0011076H22.9399V23.6966H17.0852V10.196H17.0863Z" fill="#E8E8E8"/>
  <path d="M0 20.6025C2.43659 20.6025 5.08647 18.1588 5.08647 13.9536V0H10.5694V13.9536C10.5694 18.7359 5.69506 21.5741 0 21.5741V20.6025ZM13.4046 16.1614C15.0204 16.1614 16.1327 17.2659 16.1327 18.8689C16.1327 20.4098 14.9579 21.5752 13.4046 21.5752C11.7888 21.5752 10.6766 20.4718 10.6766 18.8689C10.6754 17.3268 11.8513 16.1614 13.4046 16.1614ZM17.0863 10.196H12.3449V8.75038H17.0863V4.15086C17.0863 1.85886 18.959 0.0011076 21.2694 0.0011076H22.9399V23.6966H17.0852V10.196H17.0863Z" fill="#797979"/>
  <path d="M0 20.6025C2.43659 20.6025 5.08647 18.1588 5.08647 13.9536V0H10.5694V13.9536C10.5694 18.7359 5.69506 21.5741 0 21.5741V20.6025ZM13.4046 16.1614C15.0204 16.1614 16.1327 17.2659 16.1327 18.8689C16.1327 20.4098 14.9579 21.5752 13.4046 21.5752C11.7888 21.5752 10.6766 20.4718 10.6766 18.8689C10.6754 17.3268 11.8513 16.1614 13.4046 16.1614ZM17.0863 10.196H12.3449V8.75038H17.0863V4.15086C17.0863 1.85886 18.959 0.0011076 21.2694 0.0011076H22.9399V23.6966H17.0852V10.196H17.0863Z" fill="#2CBDE4"/>
  <path d="M47.5135 23.2557L46.9139 18.9265L42.6973 20.1916L44.3143 21.2207C41.737 22.4969 38.3869 19.8382 38.9241 16.6987H44.168V15.2774H39.1965C39.8799 13.4839 38.6929 11.4323 36.6538 11.5121C34.6137 11.4323 33.4278 13.4839 34.1112 15.2774H30.5702C29.7796 15.2774 29.1397 15.9133 29.1397 16.6965H34.3836C34.9208 19.8349 31.5696 22.4946 28.9934 21.2185L30.6093 20.1893L26.3927 18.9243L25.793 23.2535L27.1956 22.3606C29.4066 25.4845 34.8314 23.6833 36.655 20.7986C38.4774 23.6833 43.9022 25.4845 46.1143 22.3606L47.5135 23.2557ZM37.804 14.4023C37.7292 14.8897 37.3272 15.2874 36.837 15.3616C36.0486 15.4813 35.3797 14.8177 35.5014 14.0367C35.5763 13.5493 35.9783 13.1516 36.4685 13.0774C37.2557 12.9577 37.9246 13.6213 37.804 14.4023Z" fill="#E8E8E8"/>
  <path d="M47.5135 23.2557L46.9139 18.9265L42.6973 20.1916L44.3143 21.2207C41.737 22.4969 38.3869 19.8382 38.9241 16.6987H44.168V15.2774H39.1965C39.8799 13.4839 38.6929 11.4323 36.6538 11.5121C34.6137 11.4323 33.4278 13.4839 34.1112 15.2774H30.5702C29.7796 15.2774 29.1397 15.9133 29.1397 16.6965H34.3836C34.9208 19.8349 31.5696 22.4946 28.9934 21.2185L30.6093 20.1893L26.3927 18.9243L25.793 23.2535L27.1956 22.3606C29.4066 25.4845 34.8314 23.6833 36.655 20.7986C38.4774 23.6833 43.9022 25.4845 46.1143 22.3606L47.5135 23.2557ZM37.804 14.4023C37.7292 14.8897 37.3272 15.2874 36.837 15.3616C36.0486 15.4813 35.3797 14.8177 35.5014 14.0367C35.5763 13.5493 35.9783 13.1516 36.4685 13.0774C37.2557 12.9577 37.9246 13.6213 37.804 14.4023Z" fill="#797979"/>
  <path d="M47.5135 23.2557L46.9139 18.9265L42.6973 20.1916L44.3143 21.2207C41.737 22.4969 38.3869 19.8382 38.9241 16.6987H44.168V15.2774H39.1965C39.8799 13.4839 38.6929 11.4323 36.6538 11.5121C34.6137 11.4323 33.4278 13.4839 34.1112 15.2774H30.5702C29.7796 15.2774 29.1397 15.9133 29.1397 16.6965H34.3836C34.9208 19.8349 31.5696 22.4946 28.9934 21.2185L30.6093 20.1893L26.3927 18.9243L25.793 23.2535L27.1956 22.3606C29.4066 25.4845 34.8314 23.6833 36.655 20.7986C38.4774 23.6833 43.9022 25.4845 46.1143 22.3606L47.5135 23.2557ZM37.804 14.4023C37.7292 14.8897 37.3272 15.2874 36.837 15.3616C36.0486 15.4813 35.3797 14.8177 35.5014 14.0367C35.5763 13.5493 35.9783 13.1516 36.4685 13.0774C37.2557 12.9577 37.9246 13.6213 37.804 14.4023Z" fill="#2CBDE4"/>
</svg>