<svg xmlns="http://www.w3.org/2000/svg" width="20" height="20" viewBox="0 0 20 20" fill="none">
  <path fill-rule="evenodd" clip-rule="evenodd" d="M13.25 1C13.6642 1 14 1.33579 14 1.75V3.25C14 3.66421 13.6642 4 13.25 4C12.8358 4 12.5 3.66421 12.5 3.25V1.75C12.5 1.33579 12.8358 1 13.25 1ZM17.7803 2.21967C18.0732 2.51256 18.0732 2.98744 17.7803 3.28033L16.2803 4.78033C15.9874 5.07322 15.5126 5.07322 15.2197 4.78033C14.9268 4.48744 14.9268 4.01256 15.2197 3.71967L16.7197 2.21967C17.0126 1.92678 17.4874 1.92678 17.7803 2.21967ZM6.72967 2.73967C7.70256 1.76678 9.28744 1.76678 10.2603 2.73967L17.2603 9.73967C18.2332 10.7126 18.2332 12.2974 17.2603 13.2703C16.4604 14.0702 15.2469 14.2125 14.2998 13.697L13.367 14.28L13.9684 16.2845C14.0648 16.606 13.9359 16.9525 13.6527 17.1327L10.9027 18.8827C10.6804 19.0242 10.4002 19.0386 10.1646 18.9208L7.81859 17.7478L6.3975 18.636C6.10134 18.8211 5.71662 18.7773 5.46967 18.5303L5.24055 18.3012C4.25744 19.2427 2.69788 19.2367 1.73537 18.2599C0.771222 17.2933 0.751227 15.7371 1.69854 14.7592L1.46967 14.5303C1.22272 14.2834 1.1789 13.8987 1.364 13.6025L6.30296 5.70016C5.78754 4.75315 5.92977 3.53956 6.72967 2.73967ZM7.33632 6.87698L2.95221 13.8916L6.10845 17.0478L13.123 12.6637L7.33632 6.87698ZM2.75957 15.8202C2.40456 16.2056 2.41012 16.8134 2.79838 17.2016L2.80291 17.2062L2.80289 17.2062C3.1729 17.5826 3.77774 17.6011 4.17928 17.2399L2.75957 15.8202ZM9.3093 16.8161L10.4556 17.3893L12.3686 16.1719L12.0483 15.1043L9.3093 16.8161ZM9.19967 3.80033C8.81256 3.41322 8.17744 3.41322 7.79033 3.80033C7.40322 4.18744 7.40322 4.82256 7.79033 5.20967L14.7903 12.2097C15.1774 12.5968 15.8126 12.5968 16.1997 12.2097C16.5868 11.8226 16.5868 11.1874 16.1997 10.8003L9.19967 3.80033ZM16 6.75C16 6.33579 16.3358 6 16.75 6H18.25C18.6642 6 19 6.33579 19 6.75C19 7.16421 18.6642 7.5 18.25 7.5H16.75C16.3358 7.5 16 7.16421 16 6.75Z" fill="black"/>
</svg>