<svg width="24" height="24" viewBox="0 0 24 24" fill="none" xmlns="http://www.w3.org/2000/svg">
<g id="check-circle">
<path id="Icon" fill-rule="evenodd" clip-rule="evenodd" d="M12.0002 3.0002C7.02963 3.0002 3.0002 7.02963 3.0002 12.0002C3.0002 16.9708 7.02963 21.0002 12.0002 21.0002C16.9708 21.0002 21.0002 16.9708 21.0002 12.0002C21.0002 7.02963 16.9708 3.0002 12.0002 3.0002ZM1.2002 12.0002C1.2002 6.03552 6.03552 1.2002 12.0002 1.2002C17.9649 1.2002 22.8002 6.03552 22.8002 12.0002C22.8002 17.9649 17.9649 22.8002 12.0002 22.8002C6.03552 22.8002 1.2002 17.9649 1.2002 12.0002ZM16.4505 7.98804C16.8438 8.29196 16.9163 8.85719 16.6124 9.2505L11.5124 15.8505C11.3492 16.0617 11.1006 16.1896 10.8339 16.1996C10.5672 16.2096 10.3098 16.1007 10.1312 15.9023L7.43123 12.9023C7.09872 12.5328 7.12867 11.9637 7.49813 11.6312C7.86759 11.2987 8.43665 11.3287 8.76916 11.6981L10.7476 13.8964L15.188 8.14989C15.492 7.75658 16.0572 7.68412 16.4505 7.98804Z" fill="#C2C2C2"/>
</g>
</svg>
