<svg width="24" height="24" viewBox="0 0 24 24" fill="none" xmlns="http://www.w3.org/2000/svg">
<g id="check-circle-fill">
<path id="Icon" fill-rule="evenodd" clip-rule="evenodd" d="M12.0002 1.2002C6.03552 1.2002 1.2002 6.03552 1.2002 12.0002C1.2002 17.9649 6.03552 22.8002 12.0002 22.8002C17.9649 22.8002 22.8002 17.9649 22.8002 12.0002C22.8002 6.03552 17.9649 1.2002 12.0002 1.2002ZM16.6124 9.2505C16.9163 8.85719 16.8438 8.29196 16.4505 7.98804C16.0572 7.68412 15.492 7.75658 15.188 8.14989L10.7476 13.8964L8.76916 11.6981C8.43665 11.3287 7.86759 11.2987 7.49813 11.6312C7.12867 11.9637 7.09872 12.5328 7.43123 12.9023L10.1312 15.9023C10.3098 16.1007 10.5672 16.2096 10.8339 16.1996C11.1006 16.1896 11.3492 16.0617 11.5124 15.8505L16.6124 9.2505Z" fill="black"/>
</g>
</svg>
