<svg width="31" height="31" viewBox="0 0 31 31" fill="none" xmlns="http://www.w3.org/2000/svg">
<g id="star">
<path id="Icon" fill-rule="evenodd" clip-rule="evenodd" d="M14.8112 24.2979L9.45515 27.2405C8.73168 27.638 7.83685 27.3473 7.4565 26.5912C7.30504 26.2902 7.25277 25.9454 7.3078 25.6101L8.33071 19.3776C8.41305 18.8759 8.25389 18.364 7.90508 18.0087L3.57193 13.5948C2.98663 12.9986 2.97465 12.0194 3.54518 11.4078C3.77237 11.1642 4.07006 11.0057 4.39215 10.9568L10.3804 10.0475C10.8625 9.97429 11.2792 9.65791 11.4947 9.20144L14.1728 3.53092C14.5345 2.76497 15.4219 2.45049 16.1549 2.82851C16.4468 2.97904 16.683 3.22591 16.827 3.53092L19.5051 9.20144C19.7206 9.65791 20.1374 9.97429 20.6194 10.0475L26.6077 10.9568C27.4165 11.0796 27.977 11.8644 27.8594 12.7097C27.8126 13.0463 27.6609 13.3574 27.4279 13.5948L23.0947 18.0087C22.7459 18.364 22.5868 18.8759 22.6691 19.3776L23.75 25.6101C23.8882 26.452 23.2891 27.2515 22.4835 27.3959C22.1627 27.4534 21.8327 27.3988 21.5447 27.2405L16.1886 24.2979C15.7574 24.061 15.2424 24.061 14.8112 24.2979Z" stroke="#767676" stroke-width="2" stroke-linejoin="round"/>
</g>
</svg>
