<svg width="25" height="25" viewBox="0 0 25 25" fill="none" xmlns="http://www.w3.org/2000/svg">
<g id="anchor">
<path id="Icon" fill-rule="evenodd" clip-rule="evenodd" d="M12.5 3.33333C11.4875 3.33333 10.6667 4.15414 10.6667 5.16667C10.6667 6.17919 11.4875 7 12.5 7C13.5125 7 14.3333 6.17919 14.3333 5.16667C14.3333 4.15414 13.5125 3.33333 12.5 3.33333ZM8.83333 5.16667C8.83333 3.14162 10.475 1.5 12.5 1.5C14.525 1.5 16.1667 3.14162 16.1667 5.16667C16.1667 6.87519 14.9981 8.31078 13.4167 8.71782V21.6214C17.5675 21.2093 20.9038 18.0283 21.5524 13.9516L18.0619 15.4787C17.598 15.6816 17.0576 15.4701 16.8546 15.0063C16.6517 14.5425 16.8632 14.002 17.327 13.7991L22.2159 11.6602C22.4993 11.5362 22.8262 11.5635 23.0851 11.7328C23.344 11.9022 23.5 12.1906 23.5 12.5C23.5 18.5751 18.5751 23.5 12.5 23.5C6.42487 23.5 1.5 18.5751 1.5 12.5C1.5 12.1906 1.65603 11.9022 1.91493 11.7328C2.17383 11.5635 2.50067 11.5362 2.78408 11.6602L7.67297 13.7991C8.13679 14.002 8.34829 14.5425 8.14537 15.0063C7.94245 15.4701 7.40195 15.6816 6.93814 15.4787L3.44763 13.9516C4.09623 18.0283 7.43251 21.2093 11.5833 21.6214V8.71782C10.0019 8.31078 8.83333 6.87519 8.83333 5.16667Z" fill="#7ECEE9" stroke="#7ECEE9" stroke-width="0.5" stroke-linejoin="round"/>
</g>
</svg>
