<svg width="28" height="28" viewBox="0 0 28 28" fill="none" xmlns="http://www.w3.org/2000/svg">
<g id="anchor">
<path id="Icon" fill-rule="evenodd" clip-rule="evenodd" d="M14 4C12.8954 4 12 4.89543 12 6C12 7.10457 12.8954 8 14 8C15.1046 8 16 7.10457 16 6C16 4.89543 15.1046 4 14 4ZM10 6C10 3.79086 11.7909 2 14 2C16.2091 2 18 3.79086 18 6C18 7.86384 16.7252 9.42994 15 9.87398V23.9506C19.5282 23.501 23.1678 20.0309 23.8753 15.5836L20.0675 17.2495C19.5615 17.4709 18.9719 17.2401 18.7505 16.7342C18.5291 16.2282 18.7599 15.6385 19.2658 15.4172L24.5992 13.0838C24.9084 12.9486 25.2649 12.9784 25.5473 13.1631C25.8298 13.3478 26 13.6625 26 14C26 20.6274 20.6274 26 14 26C7.37258 26 2 20.6274 2 14C2 13.6625 2.17022 13.3478 2.45265 13.1631C2.73509 12.9784 3.09164 12.9486 3.40082 13.0838L8.73415 15.4172C9.24013 15.6385 9.47086 16.2282 9.24949 16.7342C9.02812 17.2401 8.43849 17.4709 7.93251 17.2495L4.12468 15.5836C4.83225 20.0309 8.47183 23.501 13 23.9506V9.87398C11.2748 9.42994 10 7.86384 10 6Z" fill="#ACACAC" stroke="#ACACAC" stroke-width="0.5" stroke-linejoin="round"/>
</g>
</svg>
