<svg width="30" height="30" viewBox="0 0 30 30" fill="none" xmlns="http://www.w3.org/2000/svg">
<g id="shop-star / Inactive">
<path id="Icon" d="M12.7425 3.45244C13.3403 2.18679 14.8512 1.61785 16.1274 2.27597C16.6261 2.53317 17.0202 2.9498 17.2576 3.45244L19.8365 8.9124C19.8966 9.03958 19.9999 9.10458 20.0926 9.11866L25.8592 9.9942C27.2658 10.2078 28.1639 11.5433 27.975 12.9022C27.8986 13.4511 27.6504 13.9659 27.2595 14.364L23.0868 18.614C22.9995 18.7029 22.9489 18.8449 22.9723 18.9944L24.0138 24.9989C24.2459 26.413 23.2554 27.72 21.9162 27.96C21.3611 28.0595 20.792 27.9642 20.2993 27.6935L15.1416 24.8602C15.0513 24.8106 14.9488 24.8106 14.8585 24.8602L9.70076 27.6935C8.44275 28.3846 6.9166 27.8578 6.28669 26.6059C6.03705 26.1097 5.95248 25.5456 6.04222 24.9989L7.02727 18.9978C7.05202 18.847 7.0013 18.7036 6.91335 18.614L2.74065 14.364C1.7701 13.3755 1.75162 11.7726 2.69576 10.7605C3.07697 10.3519 3.58371 10.0788 4.14094 9.9942L9.90747 9.11866C10.0002 9.10458 10.1035 9.03959 10.1636 8.9124L12.7425 3.45244Z" fill="#2CBDE4"/>
</g>
</svg>
