<svg width="20" height="20" viewBox="0 0 20 20" fill="none" xmlns="http://www.w3.org/2000/svg">
<g id="chevron-right-small-circle">
<path id="Icon" fill-rule="evenodd" clip-rule="evenodd" d="M10 2.5C5.85787 2.5 2.5 5.85786 2.5 10C2.5 14.1421 5.85786 17.5 10 17.5C14.1421 17.5 17.5 14.1421 17.5 10C17.5 5.85787 14.1421 2.5 10 2.5ZM1 10C1 5.02944 5.02944 1 10 1C14.9706 1 19 5.02944 19 10C19 14.9706 14.9706 19 10 19C5.02944 19 1 14.9706 1 10ZM8.20041 6.23966C8.48226 5.93613 8.95681 5.91855 9.26034 6.20041L12.7603 9.45041C12.9132 9.59231 13 9.79145 13 10C13 10.2086 12.9132 10.4077 12.7603 10.5496L9.26034 13.7996C8.9568 14.0814 8.48226 14.0639 8.2004 13.7603C7.91855 13.4568 7.93613 12.9823 8.23966 12.7004L11.1478 10L8.23966 7.29959C7.93613 7.01774 7.91855 6.54319 8.20041 6.23966Z" fill="black"/>
</g>
</svg>
