<svg width="12" height="12" viewBox="0 0 12 12" fill="none" xmlns="http://www.w3.org/2000/svg">
<g id="icon / ionicons / outline / return-down-forward-outline">
<path id="Union" fill-rule="evenodd" clip-rule="evenodd" d="M2 3.375C2 3.09886 1.77614 2.875 1.5 2.875C1.22386 2.875 1 3.09886 1 3.375V4C1 6.09708 2.68777 7.875 4.8125 7.875H9.29289L8.14645 9.02145C7.95118 9.21671 7.95118 9.53329 8.14645 9.72855C8.34171 9.92382 8.65829 9.92382 8.85355 9.72855L10.8536 7.72855C11.0488 7.53329 11.0488 7.21671 10.8536 7.02145L8.85355 5.02145C8.65829 4.82618 8.34171 4.82618 8.14645 5.02145C7.95118 5.21671 7.95118 5.53329 8.14645 5.72855L9.29289 6.875H4.8125C3.26473 6.875 2 5.56979 2 4V3.375Z" fill="#0F172A"/>
</g>
</svg>
