<svg xmlns="http://www.w3.org/2000/svg" width="16" height="16" viewBox="0 0 16 16" fill="none">
  <path fill-rule="evenodd" clip-rule="evenodd" d="M2.66665 4.49967C2.66665 4.13148 2.36817 3.83301 1.99998 3.83301C1.63179 3.83301 1.33331 4.13148 1.33331 4.49967V5.33301C1.33331 8.12912 3.58368 10.4997 6.41665 10.4997H12.3905L10.8619 12.0283C10.6016 12.2886 10.6016 12.7107 10.8619 12.9711C11.1223 13.2314 11.5444 13.2314 11.8047 12.9711L14.4714 10.3044C14.7317 10.0441 14.7317 9.62195 14.4714 9.3616L11.8047 6.69494C11.5444 6.43459 11.1223 6.43459 10.8619 6.69494C10.6016 6.95529 10.6016 7.3774 10.8619 7.63775L12.3905 9.16634H6.41665C4.35295 9.16634 2.66665 7.42606 2.66665 5.33301V4.49967Z" fill="#3BBCD9"/>
</svg>