<svg width="30" height="30" viewBox="0 0 30 30" fill="none" xmlns="http://www.w3.org/2000/svg">
<g id="shop-star / Inactive">
<path id="Icon" d="M21.9843 19.1492L21.9856 19.1572L21.987 19.1653L23.0276 25.1647C23.1654 26.018 22.56 26.8287 21.7398 26.9757C21.412 27.0345 21.0748 26.9786 20.7808 26.8171L15.6231 23.9838L15.1416 24.8602L15.6231 23.9838C15.2329 23.7694 14.7672 23.7694 14.377 23.9838L14.8585 24.8602L14.377 23.9838L9.21929 26.8171C8.48235 27.2219 7.56809 26.9277 7.17999 26.1564C7.02618 25.8507 6.97321 25.5009 7.02902 25.1609L8.01406 19.1598C8.08945 18.7005 7.94255 18.2349 7.62691 17.9134L3.45421 13.6635C2.85941 13.0576 2.84719 12.0642 3.42698 11.4427C3.65832 11.1947 3.96195 11.0328 4.29105 10.9829L10.0576 10.1073C10.489 10.0418 10.8697 9.75895 11.0678 9.33947L13.6467 3.87952C14.0158 3.09806 14.9225 2.77977 15.669 3.16475C15.9667 3.31828 16.2071 3.5697 16.3534 3.87952L18.9323 9.33948C19.1304 9.75894 19.5111 10.0418 19.9425 10.1073L25.7091 10.9829C26.5316 11.1078 27.1042 11.9038 26.9845 12.7644C26.937 13.1058 26.7831 13.4219 26.5459 13.6635L22.3732 17.9134C22.0598 18.2326 21.913 18.6935 21.9843 19.1492Z" stroke="#959595" stroke-width="2"/>
</g>
</svg>
